<svg width="738" height="186" viewBox="0 0 738 186" fill="none" xmlns="http://www.w3.org/2000/svg">
<line y1="26.75" x2="738" y2="26.75" stroke="url(#paint0_linear_2469_1553)" stroke-opacity="0.3" stroke-width="0.5"/>
<line y1="158.75" x2="738" y2="158.75" stroke="url(#paint1_linear_2469_1553)" stroke-opacity="0.3" stroke-width="0.5"/>
<line y1="77.75" x2="738" y2="77.75" stroke="url(#paint2_linear_2469_1553)" stroke-opacity="0.3" stroke-width="0.5"/>
<line y1="105.75" x2="738" y2="105.75" stroke="url(#paint3_linear_2469_1553)" stroke-opacity="0.3" stroke-width="0.5"/>
<line x1="213.25" y1="1" x2="213.25" y2="186" stroke="#1E1E1E" stroke-opacity="0.12" stroke-width="0.5"/>
<line x1="232.25" y1="27" x2="232.25" y2="157" stroke="#1E1E1E" stroke-opacity="0.12" stroke-width="0.5"/>
<line x1="255.25" y1="27" x2="255.25" y2="157" stroke="#1E1E1E" stroke-opacity="0.12" stroke-width="0.5"/>
<line x1="236.25" y1="27" x2="236.25" y2="157" stroke="#1E1E1E" stroke-opacity="0.12" stroke-width="0.5"/>
<line x1="260.25" y1="27" x2="260.25" y2="157" stroke="#1E1E1E" stroke-opacity="0.12" stroke-width="0.5"/>
<line x1="270.25" y1="27" x2="270.25" y2="157" stroke="#1E1E1E" stroke-opacity="0.12" stroke-width="0.5"/>
<line x1="273.25" y1="27" x2="273.25" y2="157" stroke="#1E1E1E" stroke-opacity="0.12" stroke-width="0.5"/>
<line x1="283.25" y1="27" x2="283.25" y2="157" stroke="#1E1E1E" stroke-opacity="0.12" stroke-width="0.5"/>
<line x1="287.25" y1="27" x2="287.25" y2="157" stroke="#1E1E1E" stroke-opacity="0.12" stroke-width="0.5"/>
<line x1="333.25" y1="27" x2="333.25" y2="157" stroke="#1E1E1E" stroke-opacity="0.12" stroke-width="0.5"/>
<line x1="337.25" y1="27" x2="337.25" y2="157" stroke="#1E1E1E" stroke-opacity="0.12" stroke-width="0.5"/>
<line x1="348.25" y1="27" x2="348.25" y2="157" stroke="#1E1E1E" stroke-opacity="0.12" stroke-width="0.5"/>
<line x1="350.25" y1="27" x2="350.25" y2="157" stroke="#1E1E1E" stroke-opacity="0.12" stroke-width="0.5"/>
<line x1="369.25" y1="27" x2="369.25" y2="157" stroke="#1E1E1E" stroke-opacity="0.12" stroke-width="0.5"/>
<line x1="372.25" y1="27" x2="372.25" y2="157" stroke="#1E1E1E" stroke-opacity="0.12" stroke-width="0.5"/>
<line x1="391.25" y1="27" x2="391.25" y2="157" stroke="#1E1E1E" stroke-opacity="0.12" stroke-width="0.5"/>
<line x1="395.25" y1="27" x2="395.25" y2="157" stroke="#1E1E1E" stroke-opacity="0.12" stroke-width="0.5"/>
<line x1="406.25" y1="27" x2="406.25" y2="157" stroke="#1E1E1E" stroke-opacity="0.12" stroke-width="0.5"/>
<line x1="409.25" y1="27" x2="409.25" y2="157" stroke="#1E1E1E" stroke-opacity="0.12" stroke-width="0.5"/>
<line x1="306.25" y1="1" x2="306.25" y2="186" stroke="#1E1E1E" stroke-opacity="0.12" stroke-width="0.5"/>
<line x1="311.25" y1="1" x2="311.25" y2="186" stroke="#1E1E1E" stroke-opacity="0.12" stroke-width="0.5"/>
<line x1="428.25" y1="1" x2="428.25" y2="186" stroke="#1E1E1E" stroke-opacity="0.12" stroke-width="0.5"/>
<line x1="189.25" y1="1.09278e-08" x2="189.25" y2="185" stroke="#1E1E1E" stroke-opacity="0.2" stroke-width="0.5"/>
<line x1="61.25" y1="1.09278e-08" x2="61.25" y2="185" stroke="#1E1E1E" stroke-opacity="0.12" stroke-width="0.5"/>
<line x1="86.25" y1="1.09278e-08" x2="86.25" y2="185" stroke="#1E1E1E" stroke-opacity="0.12" stroke-width="0.5"/>
<line x1="157.25" y1="1.09278e-08" x2="157.25" y2="185" stroke="#1E1E1E" stroke-opacity="0.12" stroke-width="0.5"/>
<path d="M231.332 78.0703V82.5234H217.348V89.5547H230.668V94.1836H217.289V101.508H231.605V106H212.211V78.0703H231.332ZM235.426 99.6133C235.426 95.5378 238.395 93.5 244.332 93.5C245.725 93.5 247.118 93.6302 248.512 93.8906V92.3477C248.512 90.5117 247.19 89.5938 244.547 89.5938C242.307 89.5938 239.82 89.9193 237.086 90.5703V86.4688C239.82 85.8177 242.307 85.4922 244.547 85.4922C250.641 85.4922 253.688 87.7448 253.688 92.25V106H250.68L248.844 104.164C247.06 105.388 245.094 106 242.945 106C237.932 106 235.426 103.871 235.426 99.6133ZM248.512 97.4062C247.21 97.1458 245.816 97.0156 244.332 97.0156C241.845 97.0156 240.602 97.862 240.602 99.5547C240.602 101.378 241.643 102.289 243.727 102.289C245.445 102.289 247.04 101.755 248.512 100.688V97.4062ZM259.09 106V85.4922H263.094L263.738 88.1094C265.535 86.3646 267.436 85.4922 269.441 85.4922V89.6719C267.514 89.6719 265.789 90.4727 264.266 92.0742V106H259.09ZM272.578 82.1719H276.406L277.188 85.4922H282.344V89.5938H277.754V99.0273C277.754 100.941 278.581 101.898 280.234 101.898H282.344V106H277.734C274.297 106 272.578 104.158 272.578 100.473V82.1719ZM286.379 106V78.0703H291.555V88.1094C293.169 86.3646 295.233 85.4922 297.746 85.4922C302.603 85.4922 305.031 88.0182 305.031 93.0703V106H299.855V93.0703C299.855 90.8047 298.729 89.6719 296.477 89.6719C294.797 89.6719 293.156 90.3424 291.555 91.6836V106H286.379ZM310.922 106V78.0703H324.008C329.32 78.0703 331.977 80.2383 331.977 84.5742C331.977 87.7513 330.245 90.0234 326.781 91.3906C330.479 92.0807 332.328 94.1966 332.328 97.7383C332.328 103.246 329.418 106 323.598 106H310.922ZM323.383 101.508C325.674 101.508 326.82 100.336 326.82 97.9922C326.82 95.0885 325.108 93.6367 321.684 93.6367H320.121V90.2969C324.418 89.5807 326.566 87.7839 326.566 84.9062C326.566 83.3438 325.603 82.5625 323.676 82.5625H316.098V101.508H323.383ZM336.654 106V85.4922H340.658L341.302 88.1094C343.099 86.3646 345 85.4922 347.005 85.4922V89.6719C345.078 89.6719 343.353 90.4727 341.83 92.0742V106H336.654ZM358.988 85.4922C365.211 85.4922 368.323 88.6693 368.323 95.0234C368.323 95.8698 368.265 96.7161 368.148 97.5625H354.534C354.534 100.453 356.657 101.898 360.902 101.898C362.972 101.898 365.042 101.703 367.113 101.312V105.414C365.303 105.805 363.102 106 360.511 106C353.076 106 349.359 102.504 349.359 95.5117C349.359 88.832 352.568 85.4922 358.988 85.4922ZM354.534 93.9688H363.284V93.8125C363.284 90.974 361.852 89.5547 358.988 89.5547C356.253 89.5547 354.769 91.026 354.534 93.9688ZM371.634 99.6133C371.634 95.5378 374.602 93.5 380.54 93.5C381.933 93.5 383.326 93.6302 384.72 93.8906V92.3477C384.72 90.5117 383.398 89.5938 380.755 89.5938C378.515 89.5938 376.028 89.9193 373.294 90.5703V86.4688C376.028 85.8177 378.515 85.4922 380.755 85.4922C386.848 85.4922 389.895 87.7448 389.895 92.25V106H386.887L385.052 104.164C383.268 105.388 381.302 106 379.153 106C374.14 106 371.634 103.871 371.634 99.6133ZM384.72 97.4062C383.417 97.1458 382.024 97.0156 380.54 97.0156C378.053 97.0156 376.809 97.862 376.809 99.5547C376.809 101.378 377.851 102.289 379.934 102.289C381.653 102.289 383.248 101.755 384.72 100.688V97.4062ZM394.905 82.1719H398.733L399.514 85.4922H404.67V89.5938H400.08V99.0273C400.08 100.941 400.907 101.898 402.561 101.898H404.67V106H400.061C396.623 106 394.905 104.158 394.905 100.473V82.1719ZM408.605 106V78.0703H413.781V88.1094C415.396 86.3646 417.46 85.4922 419.973 85.4922C424.829 85.4922 427.258 88.0182 427.258 93.0703V106H422.082V93.0703C422.082 90.8047 420.956 89.6719 418.703 89.6719C417.023 89.6719 415.383 90.3424 413.781 91.6836V106H408.605Z" fill="#212223"/>
<path d="M133 27C137.678 27 144.637 26.9997 154.708 28.8516C170.072 31.0197 187.58 38.1196 188.357 58.7305C189.307 83.9066 174.753 89.9707 171.226 91.9863C185.334 97.0253 188.357 109.63 188.357 120.716C188.834 138.145 176.689 155.202 151.749 157.286C148.173 157.722 141.077 158.501 135.999 158.501C126.923 158.501 119.277 157.642 116.09 157.224C98.9381 155.428 85.5263 145.171 79.0137 136.841C37.9423 84.308 79.7024 34.0282 115.065 28.5H115C115.156 28.4778 115.324 28.4577 115.503 28.4336C115.999 28.3611 116.495 28.2988 116.988 28.2441C121.337 27.7207 128.93 27 133 27ZM88.084 100.561C88.0841 120.98 97.6648 132.85 107.992 139.007L108 139C108.031 139.012 111.712 140.404 114.162 141C115.703 141.375 116.088 141.469 117.484 141.703L119.297 142C121.704 142.391 128.155 143 130.595 143H145.145C145.205 142.983 145.266 142.967 145.326 142.949C153.265 142.57 159.001 142 159.001 142C159.007 141.961 160.86 129.511 159.001 121.228C158.517 119.07 158.5 118.534 157.591 115.776C154.346 105.246 144.507 101.235 138.977 100.561H88.084ZM130 42C127.625 42 121.343 42.6095 119 43C116 43.5 116 43.5001 114 44C111.788 44.5529 108.548 45.7885 108.062 45.9756C108.072 45.9819 108.084 45.9892 108.097 45.9971C97.7288 52.1358 88.084 64.0199 88.084 84.5098H138.977C144.857 83.7926 155.608 79.3033 158.124 67.2168C158.506 66.0668 158.605 65.6935 159.004 64.1943C161.233 55.8192 159.009 42.032 159.004 42H130Z" fill="#2A2A2A"/>
<defs>
<linearGradient id="paint0_linear_2469_1553" x1="0" y1="27.5" x2="738" y2="27.5" gradientUnits="userSpaceOnUse">
<stop stop-color="#1E1E1E" stop-opacity="0.4"/>
<stop offset="1" stop-color="#1E1E1E"/>
</linearGradient>
<linearGradient id="paint1_linear_2469_1553" x1="0" y1="159.5" x2="738" y2="159.5" gradientUnits="userSpaceOnUse">
<stop stop-color="#1E1E1E" stop-opacity="0.4"/>
<stop offset="1" stop-color="#1E1E1E"/>
</linearGradient>
<linearGradient id="paint2_linear_2469_1553" x1="0" y1="78.5" x2="738" y2="78.5" gradientUnits="userSpaceOnUse">
<stop stop-color="#1E1E1E" stop-opacity="0.4"/>
<stop offset="1" stop-color="#1E1E1E"/>
</linearGradient>
<linearGradient id="paint3_linear_2469_1553" x1="0" y1="106.5" x2="738" y2="106.5" gradientUnits="userSpaceOnUse">
<stop stop-color="#1E1E1E" stop-opacity="0.4"/>
<stop offset="1" stop-color="#1E1E1E"/>
</linearGradient>
</defs>
</svg>
