<svg width="596" height="275" viewBox="0 0 596 275" fill="none" xmlns="http://www.w3.org/2000/svg">
<path d="M232.351 120.859C263.585 120.859 288.895 145.538 288.895 175.968C288.894 206.398 263.585 231.078 232.351 231.078C201.116 231.078 175.807 206.398 175.807 175.968C175.807 145.538 201.116 120.859 232.351 120.859Z" stroke="#1E1E1E" stroke-opacity="0.3" stroke-width="0.5"/>
<path d="M160.166 75.1906C195.161 75.1906 223.519 102.842 223.52 136.938C223.52 171.034 195.161 198.685 160.166 198.685C125.171 198.685 96.8125 171.034 96.8125 136.938C96.8125 102.842 125.171 75.1906 160.166 75.1906Z" stroke="#1E1E1E" stroke-opacity="0.3" stroke-width="0.5"/>
<path d="M129.728 164.403C160.962 164.403 186.271 189.083 186.271 219.513C186.271 249.943 160.962 274.622 129.728 274.622C98.4932 274.622 73.1836 249.943 73.1836 219.513C73.1836 189.083 98.4932 164.403 129.728 164.403Z" stroke="#1E1E1E" stroke-opacity="0.3" stroke-width="0.5"/>
<path d="M206.405 10.2732C237.64 10.2733 262.949 34.9526 262.949 65.3826C262.949 95.8125 237.639 120.492 206.405 120.492C175.171 120.492 149.861 95.8126 149.861 65.3826C149.861 34.9525 175.171 10.2732 206.405 10.2732Z" stroke="#1E1E1E" stroke-opacity="0.3" stroke-width="0.5"/>
<path d="M210.083 10.937C241.317 10.9371 266.627 35.6164 266.627 66.0464C266.627 96.4763 241.317 121.156 210.083 121.156C178.849 121.156 153.539 96.4764 153.539 66.0464C153.539 35.6163 178.849 10.937 210.083 10.937Z" stroke="#1E1E1E" stroke-opacity="0.3" stroke-width="0.5"/>
<path d="M218.524 10.937C249.759 10.9371 275.068 35.6164 275.068 66.0464C275.068 96.4763 249.759 121.156 218.524 121.156C187.29 121.156 161.981 96.4764 161.98 66.0464C161.98 35.6163 187.29 10.937 218.524 10.937Z" stroke="#1E1E1E" stroke-opacity="0.3" stroke-width="0.5"/>
<path d="M103.374 0.25C134.608 0.250102 159.918 24.9294 159.918 55.3594C159.918 85.7893 134.608 110.469 103.374 110.469C72.1397 110.469 46.8301 85.7894 46.8301 55.3594C46.8301 24.9293 72.1397 0.25 103.374 0.25Z" stroke="#1E1E1E" stroke-opacity="0.3" stroke-width="0.5"/>
<path d="M56.7939 86.2761C88.0282 86.2762 113.338 110.956 113.338 141.385C113.338 171.815 88.0282 196.495 56.7939 196.495C25.5596 196.495 0.250034 171.816 0.25 141.385C0.25 110.955 25.5596 86.2761 56.7939 86.2761Z" stroke="#1E1E1E" stroke-opacity="0.3" stroke-width="0.5"/>
<path d="M117.435 45.0551C136.728 45.0552 152.357 60.2988 152.357 79.0893C152.357 97.8798 136.728 113.123 117.435 113.123C98.1413 113.123 82.5117 97.8799 82.5117 79.0893C82.5118 60.2987 98.1413 45.0551 117.435 45.0551Z" stroke="#1E1E1E" stroke-opacity="0.15" stroke-width="0.5"/>
<path d="M80.458 102.074C99.7512 102.074 115.381 117.318 115.381 136.108C115.381 154.899 99.7512 170.142 80.458 170.142C61.1647 170.142 45.5352 154.899 45.5352 136.108C45.5352 117.318 61.1647 102.074 80.458 102.074Z" stroke="#1E1E1E" stroke-opacity="0.15" stroke-width="0.5"/>
<path d="M82.9775 106.388C102.271 106.388 117.9 121.632 117.9 140.423C117.9 159.213 102.271 174.457 82.9775 174.457C63.6842 174.457 48.0547 159.213 48.0547 140.423C48.0547 121.632 63.6843 106.388 82.9775 106.388Z" stroke="#1E1E1E" stroke-opacity="0.15" stroke-width="0.5"/>
<path d="M81.0732 110.969C100.366 110.969 115.996 126.212 115.996 145.003C115.996 163.793 100.366 179.037 81.0732 179.037C61.7799 179.037 46.1504 163.793 46.1504 145.003C46.1504 126.212 61.78 110.969 81.0732 110.969Z" stroke="#1E1E1E" stroke-opacity="0.15" stroke-width="0.5"/>
<path d="M151.86 83.1293C149.075 99.5351 138.169 110.145 122.163 113.108C113.472 113.964 107.969 112.449 103.842 110.769C108.842 115.313 111.862 120.586 115.049 126.911C124.277 149.807 106.426 168.886 105.352 169.408C110.499 166.811 120.197 163.333 133.578 164.121C161.28 165.757 175.687 187.329 176.884 190.689C174.538 184.1 174.073 174.789 176.087 164.121C179.94 143.749 197.496 124.967 223.065 121.113C223.165 121.098 223.871 121.037 223.871 121.037C195.583 123.837 180.282 115.183 180.282 115.183C159.276 104.74 153.86 88.2515 151.86 83.1293Z" fill="#191A1E" fill-opacity="0.95"/>
<path d="M242.43 156.264L247.424 148.477C249.921 150.462 253.432 152.142 257.256 152.142C262.796 152.142 266.463 148.63 266.463 141.835V122.596H276.763V141.759C276.763 155.959 267.946 161.685 257.88 161.685C251.091 161.685 246.019 159.471 242.43 156.264Z" fill="#191A1E" fill-opacity="0.95"/>
<path d="M284.912 143.481V123.021H294.666V142.183C294.666 149.054 298.021 153.176 303.796 153.176C309.57 153.176 313.393 148.825 313.393 142.107V123.021H323.147V160.811H313.393V156.306C310.428 159.589 306.293 161.574 300.83 161.574C292.247 161.574 284.912 156.001 284.912 143.481Z" fill="#191A1E" fill-opacity="0.95"/>
<path d="M329.078 156.569L333.37 149.622C336.647 152.065 341.095 153.516 344.84 153.516C350.068 153.516 351.863 151.76 351.863 149.698C351.863 143.209 330.249 147.255 330.249 133.285C330.249 126.261 337.037 121.986 345.465 121.986C351.005 121.986 355.765 123.207 360.212 125.956L355.843 132.979C352.643 130.842 349.288 129.773 346.011 129.773C342.187 129.773 340.002 131.376 340.002 133.285C340.002 139.621 361.617 135.957 361.617 149.851C361.617 156.646 355.452 161.303 345.23 161.303C338.832 161.303 333.214 159.623 329.078 156.569Z" fill="#191A1E" fill-opacity="0.95"/>
<path d="M400.076 156.756L404.368 149.808C407.645 152.251 412.093 153.702 415.838 153.702C421.066 153.702 422.861 151.946 422.861 149.885C422.861 143.396 401.247 147.442 401.247 133.471C401.247 126.447 408.035 122.172 416.463 122.172C422.003 122.172 426.763 123.393 431.21 126.142L426.841 133.165C423.641 131.028 420.286 129.959 417.009 129.959C413.185 129.959 411 131.562 411 133.471C411 139.807 432.615 136.143 432.615 150.037C432.615 156.832 426.451 161.489 416.229 161.489C409.83 161.489 404.212 159.809 400.076 156.756Z" fill="#191A1E" fill-opacity="0.95"/>
<path d="M372.697 147.561V130.842H365.752V122.749H372.697V111.679H382.451V122.749H392.829V130.842H382.451V146.568C382.451 151.454 384.791 153.058 388.147 153.058C389.707 153.058 390.878 152.829 392.282 152.065L393.297 160.081C391.268 160.845 389.239 161.303 386.274 161.303C377.691 161.303 372.697 155.959 372.697 147.561Z" fill="#191A1E" fill-opacity="0.95"/>
<path d="M437.484 141.682C437.484 130.612 445.99 121.986 457.928 121.986C465.107 121.986 471.116 125.192 474.549 130.231L467.37 135.575C465.341 132.445 461.908 130.612 458.084 130.612C451.998 130.612 447.238 135.422 447.238 141.606C447.238 147.79 451.998 152.676 458.084 152.676C461.908 152.676 465.341 150.844 467.37 147.713L474.549 153.057C471.116 158.096 465.107 161.303 457.928 161.303C445.99 161.303 437.484 152.676 437.484 141.682Z" fill="#191A1E" fill-opacity="0.95"/>
<path d="M478.607 141.682C478.607 130.612 487.659 121.986 499.442 121.986C511.224 121.986 520.198 130.612 520.198 141.682C520.198 152.752 511.146 161.303 499.442 161.303C487.737 161.303 478.607 152.752 478.607 141.682ZM510.444 141.682C510.444 135.193 505.762 130.46 499.442 130.46C493.121 130.46 488.361 135.193 488.361 141.682C488.361 148.171 493.043 152.828 499.442 152.828C505.84 152.828 510.444 148.171 510.444 141.682Z" fill="#191A1E" fill-opacity="0.95"/>
<path d="M528.156 160.539V122.749H537.91V128.246C540.719 123.818 544.855 121.986 550.239 121.986C550.785 121.986 551.097 121.986 551.722 122.062V131.605C550.707 131.452 549.927 131.452 549.147 131.452C542.748 131.452 537.91 136.033 537.91 144.125V160.539H528.156Z" fill="#191A1E" fill-opacity="0.95"/>
<path d="M593.854 145.041H565.294C566.621 150.156 570.913 153.363 575.985 153.363C580.588 153.363 583.866 151.149 585.816 148.63L591.747 154.279C588.157 158.783 582.695 161.303 575.829 161.303C564.436 161.303 555.229 153.745 555.229 141.682C555.229 129.62 563.578 121.986 575.048 121.986C585.66 121.986 594.244 128.856 594.244 140.995C594.244 142.446 594.088 143.744 593.854 145.041ZM565.143 138.247H584.65C583.636 133.055 579.891 129.925 575.053 129.925C569.903 129.925 566.235 133.132 565.143 138.247Z" fill="#191A1E" fill-opacity="0.95"/>
<line x1="594.217" y1="66.4626" x2="594.217" y2="202.94" stroke="#1E1E1E" stroke-opacity="0.1" stroke-width="0.5"/>
<line x1="554.646" y1="66.4626" x2="554.646" y2="202.94" stroke="#1E1E1E" stroke-opacity="0.1" stroke-width="0.5"/>
<line x1="552.32" y1="66.4626" x2="552.32" y2="202.94" stroke="#1E1E1E" stroke-opacity="0.1" stroke-width="0.5"/>
<line x1="527.879" y1="66.4626" x2="527.879" y2="202.94" stroke="#1E1E1E" stroke-opacity="0.1" stroke-width="0.5"/>
<line x1="520.896" y1="66.4626" x2="520.896" y2="202.94" stroke="#1E1E1E" stroke-opacity="0.1" stroke-width="0.5"/>
<line x1="477.834" y1="66.4626" x2="477.834" y2="202.94" stroke="#1E1E1E" stroke-opacity="0.1" stroke-width="0.5"/>
<line x1="437.1" y1="66.4626" x2="437.1" y2="202.94" stroke="#1E1E1E" stroke-opacity="0.1" stroke-width="0.5"/>
<line x1="432.443" y1="66.4626" x2="432.443" y2="202.94" stroke="#1E1E1E" stroke-opacity="0.1" stroke-width="0.5"/>
<line x1="399.855" y1="66.4626" x2="399.855" y2="202.94" stroke="#1E1E1E" stroke-opacity="0.1" stroke-width="0.5"/>
<line x1="392.873" y1="66.4626" x2="392.873" y2="202.94" stroke="#1E1E1E" stroke-opacity="0.1" stroke-width="0.5"/>
<line x1="364.941" y1="66.4626" x2="364.941" y2="202.94" stroke="#1E1E1E" stroke-opacity="0.1" stroke-width="0.5"/>
<line x1="361.449" y1="66.4626" x2="361.449" y2="202.94" stroke="#1E1E1E" stroke-opacity="0.1" stroke-width="0.5"/>
<line x1="324.207" y1="66.4626" x2="324.207" y2="202.94" stroke="#1E1E1E" stroke-opacity="0.1" stroke-width="0.5"/>
<line x1="284.635" y1="66.4626" x2="284.635" y2="202.94" stroke="#1E1E1E" stroke-opacity="0.1" stroke-width="0.5"/>
<line x1="277.652" y1="66.4626" x2="277.652" y2="202.94" stroke="#1E1E1E" stroke-opacity="0.1" stroke-width="0.5"/>
<line x1="328.861" y1="66.4626" x2="328.861" y2="202.94" stroke="#1E1E1E" stroke-opacity="0.1" stroke-width="0.5"/>
<line x1="475.506" y1="66.4626" x2="475.506" y2="202.94" stroke="#1E1E1E" stroke-opacity="0.1" stroke-width="0.5"/>
<line x1="242.736" y1="66.4626" x2="242.736" y2="202.94" stroke="#1E1E1E" stroke-opacity="0.1" stroke-width="0.5"/>
</svg>
