<svg width="1440" height="275" viewBox="0 0 1440 275" fill="none" xmlns="http://www.w3.org/2000/svg">
<g clip-path="url(#clip0_6666_23568)">
<path d="M873.708 120.859C904.942 120.859 930.252 145.538 930.252 175.968C930.252 206.398 904.942 231.078 873.708 231.078C842.474 231.078 817.164 206.398 817.164 175.968C817.164 145.538 842.474 120.859 873.708 120.859Z" stroke="#1E1E1E" stroke-opacity="0.3" stroke-width="0.5"/>
<path d="M801.525 75.1904C836.521 75.1904 864.879 102.842 864.879 136.938C864.879 171.034 836.521 198.685 801.525 198.685C766.53 198.685 738.172 171.034 738.172 136.938C738.172 102.842 766.53 75.1904 801.525 75.1904Z" stroke="#1E1E1E" stroke-opacity="0.3" stroke-width="0.5"/>
<path d="M771.091 164.403C802.325 164.403 827.635 189.083 827.635 219.513C827.635 249.943 802.325 274.622 771.091 274.622C739.857 274.622 714.547 249.943 714.547 219.513C714.547 189.083 739.857 164.403 771.091 164.403Z" stroke="#1E1E1E" stroke-opacity="0.3" stroke-width="0.5"/>
<path d="M847.763 10.2734C878.997 10.2735 904.307 34.9528 904.307 65.3828C904.307 95.8127 878.997 120.492 847.763 120.492C816.528 120.492 791.219 95.8128 791.219 65.3828C791.219 34.9527 816.528 10.2734 847.763 10.2734Z" stroke="#1E1E1E" stroke-opacity="0.3" stroke-width="0.5"/>
<path d="M851.442 10.937C882.677 10.9371 907.986 35.6164 907.986 66.0464C907.986 96.4763 882.677 121.156 851.442 121.156C820.208 121.156 794.898 96.4764 794.898 66.0464C794.898 35.6163 820.208 10.937 851.442 10.937Z" stroke="#1E1E1E" stroke-opacity="0.3" stroke-width="0.5"/>
<path d="M859.888 10.937C891.122 10.9371 916.432 35.6164 916.432 66.0464C916.432 96.4763 891.122 121.156 859.888 121.156C828.653 121.156 803.344 96.4764 803.344 66.0464C803.344 35.6163 828.653 10.937 859.888 10.937Z" stroke="#1E1E1E" stroke-opacity="0.3" stroke-width="0.5"/>
<path d="M744.731 0.25C775.966 0.250102 801.275 24.9294 801.275 55.3594C801.275 85.7893 775.966 110.469 744.731 110.469C713.497 110.469 688.188 85.7894 688.188 55.3594C688.188 24.9293 713.497 0.25 744.731 0.25Z" stroke="#1E1E1E" stroke-opacity="0.3" stroke-width="0.5"/>
<path d="M698.153 86.2759C729.388 86.276 754.697 110.956 754.697 141.385C754.697 171.815 729.388 196.495 698.153 196.495C666.919 196.495 641.609 171.816 641.609 141.385C641.609 110.955 666.919 86.2759 698.153 86.2759Z" stroke="#1E1E1E" stroke-opacity="0.3" stroke-width="0.5"/>
<path d="M758.79 45.0552C778.083 45.0553 793.713 60.2989 793.713 79.0894C793.713 97.8799 778.083 113.123 758.79 113.123C739.497 113.123 723.867 97.88 723.867 79.0894C723.867 60.2988 739.497 45.0552 758.79 45.0552Z" stroke="#1E1E1E" stroke-opacity="0.15" stroke-width="0.5"/>
<path d="M721.82 102.074C741.114 102.074 756.743 117.318 756.743 136.108C756.743 154.899 741.114 170.142 721.82 170.142C702.527 170.142 686.898 154.899 686.898 136.108C686.898 117.318 702.527 102.074 721.82 102.074Z" stroke="#1E1E1E" stroke-opacity="0.15" stroke-width="0.5"/>
<path d="M724.337 106.388C743.63 106.388 759.26 121.632 759.26 140.423C759.26 159.213 743.63 174.457 724.337 174.457C705.044 174.457 689.414 159.213 689.414 140.423C689.414 121.632 705.044 106.388 724.337 106.388Z" stroke="#1E1E1E" stroke-opacity="0.15" stroke-width="0.5"/>
<path d="M722.431 110.969C741.724 110.969 757.353 126.212 757.353 145.003C757.353 163.793 741.724 179.037 722.431 179.037C703.137 179.037 687.508 163.793 687.508 145.003C687.508 126.212 703.137 110.969 722.431 110.969Z" stroke="#1E1E1E" stroke-opacity="0.15" stroke-width="0.5"/>
<path d="M0 121.262H1440" stroke="#D2D2D2" stroke-width="0.5"/>
<path d="M0 162.55H1440" stroke="#D2D2D2" stroke-width="0.5"/>
<path d="M0 190.075H1440" stroke="#D2D2D2" stroke-width="0.5"/>
<path d="M0 82.2686H1440" stroke="#D2D2D2" stroke-width="0.5"/>
<path d="M0 110.941H1440" stroke="#D2D2D2" stroke-width="0.5"/>
<path d="M793.221 83.1294C790.436 99.5352 779.531 110.145 763.525 113.108C754.834 113.964 749.331 112.449 745.203 110.769C750.203 115.313 753.223 120.586 756.411 126.911C765.639 149.807 747.787 168.886 746.713 169.408C751.861 166.811 761.558 163.333 774.94 164.121C802.641 165.757 817.049 187.329 818.245 190.689C815.899 184.1 815.434 174.789 817.449 164.121C821.301 143.749 838.857 124.967 864.427 121.113C864.526 121.098 865.232 121.037 865.232 121.037C836.944 123.837 821.643 115.183 821.643 115.183C800.637 104.74 795.221 88.2516 793.221 83.1294Z" fill="#191A1E" fill-opacity="0.95"/>
<path d="M883.789 156.264L888.783 148.477C891.28 150.462 894.791 152.142 898.615 152.142C904.155 152.142 907.822 148.63 907.822 141.835V122.596H918.123V141.759C918.123 155.959 909.305 161.685 899.239 161.685C892.45 161.685 887.378 159.471 883.789 156.264Z" fill="#191A1E" fill-opacity="0.95"/>
<path d="M926.273 143.481V123.021H936.027V142.183C936.027 149.054 939.383 153.176 945.157 153.176C950.931 153.176 954.755 148.825 954.755 142.107V123.021H964.508V160.811H954.755V156.306C951.789 159.589 947.654 161.574 942.192 161.574C933.608 161.574 926.273 156.001 926.273 143.481Z" fill="#191A1E" fill-opacity="0.95"/>
<path d="M970.438 156.569L974.729 149.622C978.006 152.065 982.454 153.516 986.2 153.516C991.428 153.516 993.221 151.76 993.221 149.698C993.221 143.209 971.607 147.255 971.607 133.285C971.607 126.261 978.396 121.986 986.823 121.986C992.363 121.986 997.124 123.207 1001.57 125.956L997.202 132.979C994.003 130.842 990.647 129.773 987.37 129.773C983.547 129.773 981.362 131.376 981.362 133.285C981.362 139.621 1002.98 135.957 1002.98 149.851C1002.98 156.646 996.812 161.303 986.59 161.303C980.191 161.303 974.573 159.623 970.438 156.569Z" fill="#191A1E" fill-opacity="0.95"/>
<path d="M1041.44 156.756L1045.73 149.808C1049 152.251 1053.45 153.702 1057.2 153.702C1062.43 153.702 1064.22 151.946 1064.22 149.885C1064.22 143.396 1042.61 147.442 1042.61 133.471C1042.61 126.447 1049.39 122.172 1057.82 122.172C1063.36 122.172 1068.12 123.393 1072.57 126.142L1068.2 133.165C1065 131.028 1061.65 129.959 1058.37 129.959C1054.54 129.959 1052.36 131.562 1052.36 133.471C1052.36 139.807 1073.97 136.143 1073.97 150.037C1073.97 156.832 1067.81 161.489 1057.59 161.489C1051.19 161.489 1045.57 159.809 1041.44 156.756Z" fill="#191A1E" fill-opacity="0.95"/>
<path d="M1014.06 147.561V130.842H1007.11V122.749H1014.06V111.679H1023.81V122.749H1034.19V130.842H1023.81V146.568C1023.81 151.454 1026.15 153.058 1029.51 153.058C1031.07 153.058 1032.24 152.829 1033.64 152.065L1034.66 160.081C1032.63 160.845 1030.6 161.303 1027.63 161.303C1019.05 161.303 1014.06 155.959 1014.06 147.561Z" fill="#191A1E" fill-opacity="0.95"/>
<path d="M1078.84 141.682C1078.84 130.612 1087.35 121.986 1099.29 121.986C1106.47 121.986 1112.47 125.192 1115.91 130.231L1108.73 135.575C1106.7 132.445 1103.27 130.612 1099.44 130.612C1093.36 130.612 1088.6 135.422 1088.6 141.606C1088.6 147.79 1093.36 152.676 1099.44 152.676C1103.27 152.676 1106.7 150.844 1108.73 147.713L1115.91 153.057C1112.47 158.096 1106.47 161.303 1099.29 161.303C1087.35 161.303 1078.84 152.676 1078.84 141.682Z" fill="#191A1E" fill-opacity="0.95"/>
<path d="M1119.97 141.682C1119.97 130.612 1129.02 121.986 1140.8 121.986C1152.58 121.986 1161.56 130.612 1161.56 141.682C1161.56 152.752 1152.51 161.303 1140.8 161.303C1129.1 161.303 1119.97 152.752 1119.97 141.682ZM1151.8 141.682C1151.8 135.193 1147.12 130.46 1140.8 130.46C1134.48 130.46 1129.72 135.193 1129.72 141.682C1129.72 148.171 1134.4 152.828 1140.8 152.828C1147.2 152.828 1151.8 148.171 1151.8 141.682Z" fill="#191A1E" fill-opacity="0.95"/>
<path d="M1169.52 160.539V122.749H1179.27V128.246C1182.08 123.818 1186.21 121.986 1191.6 121.986C1192.14 121.986 1192.46 121.986 1193.08 122.062V131.605C1192.07 131.452 1191.29 131.452 1190.51 131.452C1184.11 131.452 1179.27 136.033 1179.27 144.125V160.539H1169.52Z" fill="#191A1E" fill-opacity="0.95"/>
<path d="M1235.21 145.041H1206.65C1207.98 150.156 1212.27 153.363 1217.34 153.363C1221.95 153.363 1225.23 151.149 1227.18 148.63L1233.11 154.279C1229.52 158.783 1224.05 161.303 1217.19 161.303C1205.8 161.303 1196.59 153.745 1196.59 141.682C1196.59 129.62 1204.94 121.986 1216.41 121.986C1227.02 121.986 1235.6 128.856 1235.6 140.995C1235.6 142.446 1235.45 143.744 1235.21 145.041ZM1206.5 138.247H1226.01C1225 133.055 1221.25 129.925 1216.41 129.925C1211.26 129.925 1207.59 133.132 1206.5 138.247Z" fill="#191A1E" fill-opacity="0.95"/>
<path d="M1235.58 66.4624V202.94" stroke="#1E1E1E" stroke-opacity="0.1" stroke-width="0.5"/>
<path d="M1196.01 66.4624V202.94" stroke="#1E1E1E" stroke-opacity="0.1" stroke-width="0.5"/>
<path d="M1193.68 66.4624V202.94" stroke="#1E1E1E" stroke-opacity="0.1" stroke-width="0.5"/>
<path d="M1169.24 66.4624V202.94" stroke="#1E1E1E" stroke-opacity="0.1" stroke-width="0.5"/>
<path d="M1162.26 66.4624V202.94" stroke="#1E1E1E" stroke-opacity="0.1" stroke-width="0.5"/>
<path d="M1119.19 66.4624V202.94" stroke="#1E1E1E" stroke-opacity="0.1" stroke-width="0.5"/>
<path d="M1078.46 66.4624V202.94" stroke="#1E1E1E" stroke-opacity="0.1" stroke-width="0.5"/>
<path d="M1073.8 66.4624V202.94" stroke="#1E1E1E" stroke-opacity="0.1" stroke-width="0.5"/>
<path d="M1041.21 66.4624V202.94" stroke="#1E1E1E" stroke-opacity="0.1" stroke-width="0.5"/>
<path d="M1034.23 66.4624V202.94" stroke="#1E1E1E" stroke-opacity="0.1" stroke-width="0.5"/>
<path d="M1006.3 66.4624V202.94" stroke="#1E1E1E" stroke-opacity="0.1" stroke-width="0.5"/>
<path d="M1002.81 66.4624V202.94" stroke="#1E1E1E" stroke-opacity="0.1" stroke-width="0.5"/>
<path d="M965.562 66.4624V202.94" stroke="#1E1E1E" stroke-opacity="0.1" stroke-width="0.5"/>
<path d="M925.992 66.4624V202.94" stroke="#1E1E1E" stroke-opacity="0.1" stroke-width="0.5"/>
<path d="M919.016 66.4624V202.94" stroke="#1E1E1E" stroke-opacity="0.1" stroke-width="0.5"/>
<path d="M970.219 66.4624V202.94" stroke="#1E1E1E" stroke-opacity="0.1" stroke-width="0.5"/>
<path d="M1116.87 66.4624V202.94" stroke="#1E1E1E" stroke-opacity="0.1" stroke-width="0.5"/>
<path d="M884.094 66.4624V202.94" stroke="#1E1E1E" stroke-opacity="0.1" stroke-width="0.5"/>
</g>
<defs>
<clipPath id="clip0_6666_23568">
<rect width="1440" height="275" fill="white"/>
</clipPath>
</defs>
</svg>
