<svg width="37" height="37" viewBox="0 0 37 37" fill="none" xmlns="http://www.w3.org/2000/svg">
<path d="M20.8132 10.7916C21.2389 10.7916 21.584 10.4465 21.584 10.0208C21.584 9.59509 21.2389 9.24998 20.8132 9.24998C20.3874 9.24998 20.0423 9.59509 20.0423 10.0208C20.0423 10.4465 20.3874 10.7916 20.8132 10.7916Z" fill="#7B69DA"/>
<path d="M26.9798 16.9583C27.4055 16.9583 27.7507 16.6132 27.7507 16.1875C27.7507 15.7618 27.4055 15.4166 26.9798 15.4166C26.5541 15.4166 26.209 15.7618 26.209 16.1875C26.209 16.6132 26.5541 16.9583 26.9798 16.9583Z" fill="#7B69DA"/>
<path d="M10.0215 20.0416C10.4472 20.0416 10.7923 19.6965 10.7923 19.2708C10.7923 18.8451 10.4472 18.5 10.0215 18.5C9.59577 18.5 9.25065 18.8451 9.25065 19.2708C9.25065 19.6965 9.59577 20.0416 10.0215 20.0416Z" fill="#7B69DA"/>
<path d="M13.1048 12.3333C13.5305 12.3333 13.8757 11.9882 13.8757 11.5625C13.8757 11.1368 13.5305 10.7916 13.1048 10.7916C12.6791 10.7916 12.334 11.1368 12.334 11.5625C12.334 11.9882 12.6791 12.3333 13.1048 12.3333Z" fill="#7B69DA"/>
<path d="M18.5007 33.9166C14.4119 33.9166 10.4906 32.2924 7.59942 29.4012C4.70824 26.51 3.08398 22.5887 3.08398 18.5C3.08398 14.4112 4.70824 10.4899 7.59942 7.59875C10.4906 4.70756 14.4119 3.08331 18.5007 3.08331C22.5894 3.08331 26.5107 4.54514 29.4019 7.14721C32.2931 9.74927 33.9173 13.2784 33.9173 16.9583C33.9173 19.0027 33.1052 20.9633 31.6596 22.4089C30.214 23.8545 28.2534 24.6666 26.209 24.6666H22.7402C22.2392 24.6666 21.7481 24.8062 21.3219 25.0696C20.8957 25.333 20.5512 25.7099 20.3271 26.158C20.1031 26.6062 20.0082 27.1078 20.0532 27.6069C20.0982 28.1059 20.2813 28.5825 20.5819 28.9833L21.0444 29.6C21.345 30.0008 21.5281 30.4774 21.5731 30.9764C21.6181 31.4755 21.5232 31.9771 21.2992 32.4253C21.0751 32.8734 20.7307 33.2503 20.3044 33.5137C19.8782 33.7771 19.3871 33.9166 18.8861 33.9166H18.5007Z" stroke="#7B69DA" stroke-width="2" stroke-linecap="round" stroke-linejoin="round"/>
<path d="M20.8132 10.7916C21.2389 10.7916 21.584 10.4465 21.584 10.0208C21.584 9.59509 21.2389 9.24998 20.8132 9.24998C20.3874 9.24998 20.0423 9.59509 20.0423 10.0208C20.0423 10.4465 20.3874 10.7916 20.8132 10.7916Z" stroke="#7B69DA" stroke-width="2" stroke-linecap="round" stroke-linejoin="round"/>
<path d="M26.9798 16.9583C27.4055 16.9583 27.7507 16.6132 27.7507 16.1875C27.7507 15.7618 27.4055 15.4166 26.9798 15.4166C26.5541 15.4166 26.209 15.7618 26.209 16.1875C26.209 16.6132 26.5541 16.9583 26.9798 16.9583Z" stroke="#7B69DA" stroke-width="2" stroke-linecap="round" stroke-linejoin="round"/>
<path d="M10.0215 20.0416C10.4472 20.0416 10.7923 19.6965 10.7923 19.2708C10.7923 18.8451 10.4472 18.5 10.0215 18.5C9.59577 18.5 9.25065 18.8451 9.25065 19.2708C9.25065 19.6965 9.59577 20.0416 10.0215 20.0416Z" stroke="#7B69DA" stroke-width="2" stroke-linecap="round" stroke-linejoin="round"/>
<path d="M13.1048 12.3333C13.5305 12.3333 13.8757 11.9882 13.8757 11.5625C13.8757 11.1368 13.5305 10.7916 13.1048 10.7916C12.6791 10.7916 12.334 11.1368 12.334 11.5625C12.334 11.9882 12.6791 12.3333 13.1048 12.3333Z" stroke="#7B69DA" stroke-width="2" stroke-linecap="round" stroke-linejoin="round"/>
</svg>
