<svg width="37" height="37" viewBox="0 0 37 37" fill="none" xmlns="http://www.w3.org/2000/svg">
<path d="M30.8338 3.08334V9.25001M33.9171 6.16668H27.7504M16.985 4.33826C17.051 3.98461 17.2387 3.66519 17.5155 3.43533C17.7922 3.20548 18.1407 3.07965 18.5004 3.07965C18.8602 3.07965 19.2086 3.20548 19.4854 3.43533C19.7622 3.66519 19.9498 3.98461 20.0159 4.33826L21.6362 12.9068C21.7513 13.516 22.0473 14.0764 22.4857 14.5148C22.9241 14.9531 23.4844 15.2492 24.0936 15.3643L32.6622 16.9846C33.0158 17.0506 33.3353 17.2383 33.5651 17.515C33.795 17.7918 33.9208 18.1402 33.9208 18.5C33.9208 18.8598 33.795 19.2082 33.5651 19.485C33.3353 19.7617 33.0158 19.9494 32.6622 20.0155L24.0936 21.6358C23.4844 21.7508 22.9241 22.0469 22.4857 22.4853C22.0473 22.9236 21.7513 23.484 21.6362 24.0932L20.0159 32.6618C19.9498 33.0154 19.7622 33.3348 19.4854 33.5647C19.2086 33.7945 18.8602 33.9204 18.5004 33.9204C18.1407 33.9204 17.7922 33.7945 17.5155 33.5647C17.2387 33.3348 17.051 33.0154 16.985 32.6618L15.3647 24.0932C15.2496 23.484 14.9536 22.9236 14.5152 22.4853C14.0768 22.0469 13.5165 21.7508 12.9073 21.6358L4.33869 20.0155C3.98503 19.9494 3.66562 19.7617 3.43576 19.485C3.2059 19.2082 3.08008 18.8598 3.08008 18.5C3.08008 18.1402 3.2059 17.7918 3.43576 17.515C3.66562 17.2383 3.98503 17.0506 4.33869 16.9846L12.9073 15.3643C13.5165 15.2492 14.0768 14.9531 14.5152 14.5148C14.9536 14.0764 15.2496 13.516 15.3647 12.9068L16.985 4.33826ZM9.25044 30.8333C9.25044 32.5362 7.86998 33.9167 6.1671 33.9167C4.46422 33.9167 3.08377 32.5362 3.08377 30.8333C3.08377 29.1305 4.46422 27.75 6.1671 27.75C7.86998 27.75 9.25044 29.1305 9.25044 30.8333Z" stroke="#7B69DA" stroke-width="2" stroke-linecap="round" stroke-linejoin="round"/>
</svg>
