<svg width="37" height="37" viewBox="0 0 37 37" fill="none" xmlns="http://www.w3.org/2000/svg">
<path d="M15.7257 9.71248L9.71315 15.725M10.7923 18.5C10.7923 20.6286 9.06675 22.3541 6.93815 22.3541C4.80955 22.3541 3.08398 20.6286 3.08398 18.5C3.08398 16.3714 4.80955 14.6458 6.93815 14.6458C9.06675 14.6458 10.7923 16.3714 10.7923 18.5ZM10.7923 18.5H26.209M26.209 18.5C26.209 20.6286 27.9346 22.3541 30.0632 22.3541C32.1918 22.3541 33.9173 20.6286 33.9173 18.5C33.9173 16.3714 32.1918 14.6458 30.0632 14.6458C27.9346 14.6458 26.209 16.3714 26.209 18.5ZM21.2757 27.2875L27.2882 21.275M22.3548 6.93748C22.3548 9.06608 20.6292 10.7916 18.5007 10.7916C16.3721 10.7916 14.6465 9.06608 14.6465 6.93748C14.6465 4.80888 16.3721 3.08331 18.5007 3.08331C20.6292 3.08331 22.3548 4.80888 22.3548 6.93748ZM22.3548 30.0625C22.3548 32.1911 20.6292 33.9166 18.5007 33.9166C16.3721 33.9166 14.6465 32.1911 14.6465 30.0625C14.6465 27.9339 16.3721 26.2083 18.5007 26.2083C20.6292 26.2083 22.3548 27.9339 22.3548 30.0625Z" stroke="#7B69DA" stroke-width="2" stroke-linecap="round" stroke-linejoin="round"/>
</svg>
